# xmcd
#
# Track frame offsets: 
#        150
#        27871
#        58874
#        87332
#        110026
#        139655
#        171439
#        201685
#        229864
#        257258
#        290096
#        320536
#
# Disc length: 4679 seconds
#
# Revision: 1
# Processed by: cddbd v1.5.2PL0 Copyright (c) Steve Scherf et al.
# Submitted via: ExactAudioCopy v1.3
#
DISCID=b812450c
DTITLE=Various Artist - HEDK 084 - Disco Heaven CD2
DYEAR=2008
DGENRE=Dance
TTITLE0=Dab Hands Ft Emma Lea - Something Come To Nothing (Solitaire M
TTITLE0=ix)
TTITLE1=No Halo - Put Your Hands On
TTITLE2=Soulmakers - Falling (Earnshaw's Vocal Re-Touch)
TTITLE3=Starchaser - A New Society
TTITLE4=Donna Summer - I'm A Fire (Solitaire Club Mix)
TTITLE5=FB Ft Carly George - Baby Baby (Solitaire Remix)
TTITLE6=Laurant Wolf Ft Soni Dee - Sunshine Paradise (Hott 22 Club Mix
TTITLE6=)
TTITLE7=Ben Delay Presents Poolboy Ft Rachel Harris - Someone On Your 
TTITLE7=Mind
TTITLE8=Eyereel Allstars Ft Lucy Clarke - Get It On (Fish 'n' Chips Mi
TTITLE8=x)
TTITLE9=Levi 5Star Ft Michelle Martinez - Third Time (Shave Main Mix)
TTITLE10=Kid Massive Ft Robert Owens - Another Day (Hott 22 Remix)
TTITLE11=Moby - Disco Lies (Freemasons Club Mix)
EXTD=
EXTT0=
EXTT1=
EXTT2=
EXTT3=
EXTT4=
EXTT5=
EXTT6=
EXTT7=
EXTT8=
EXTT9=
EXTT10=
EXTT11=
PLAYORDER=
